<svg id="Layer_1" height="300" viewBox="0 0 512 512" width="300" xmlns="http://www.w3.org/2000/svg" data-name="Layer 1" version="1.1" xmlns:xlink="http://www.w3.org/1999/xlink" xmlns:svgjs="http://svgjs.dev/svgjs"><rect width="512" height="512" x="0" y="0" shape="true" transform="matrix(0.98,0,0,0.98,5.1200000000000045,5.1200000000000045)" fill-opacity="1" fill="#000000"/><g width="100%" height="100%" transform="matrix(-1.14,0,0,1.14,547.8410041046143,-35.839999465942356)"><g fill-rule="evenodd"><path d="m468.3 2.011h-424.507a43.053 43.053 0 0 0 -41.783 42.979v422a43.047 43.047 0 0 0 43 43h422.02a43.042 43.042 0 0 0 42.961-43v-422a43.038 43.038 0 0 0 -41.691-42.979z" fill="#f917b0" fill-opacity="1" data-original-color="#43ebc9ff" stroke="none" stroke-opacity="1"/><path d="m341.007 234.989a21 21 0 1 1 -21 21 21.023 21.023 0 0 1 21-21zm127.293-234.979h-424.562a45.054 45.054 0 0 0 -43.728 44.98v422a45.049 45.049 0 0 0 45 45h422.02a45.043 45.043 0 0 0 44.961-45v-422a45.05 45.05 0 0 0 -43.691-44.98zm-333.295 270.981h157.254a51 51 0 1 0 0-30h-157.254a15 15 0 0 0 0 30zm36 87.751a21 21 0 1 1 -21 21 21.021 21.021 0 0 1 21-21zm0 72a51 51 0 1 1 48.753-66h157.251a15 15 0 0 1 0 30h-157.249a51.111 51.111 0 0 1 -48.753 36zm0-319.5a21 21 0 1 1 -21 21 21.021 21.021 0 0 1 21-21zm0 72a51 51 0 1 1 48.753-66h157.251a15 15 0 0 1 0 30h-157.249a51.111 51.111 0 0 1 -48.753 36zm-141-138.25v422a15.018 15.018 0 0 0 15 15h422.02a15.028 15.028 0 0 0 15-15v-422a15.028 15.028 0 0 0 -15-15h-422.016a15.018 15.018 0 0 0 -15.003 14.998z" fill="#000000" fill-opacity="1" data-original-color="#4163d4ff" stroke="none" stroke-opacity="1"/></g></g></svg>